<?xml version="1.0" encoding="UTF-8" standalone="no"?>
<!-- Created with Inkscape (http://www.inkscape.org/) -->

<svg
   xmlns:dc="http://purl.org/dc/elements/1.1/"
   xmlns:cc="http://creativecommons.org/ns#"
   xmlns:rdf="http://www.w3.org/1999/02/22-rdf-syntax-ns#"
   xmlns:svg="http://www.w3.org/2000/svg"
   xmlns="http://www.w3.org/2000/svg"
   xmlns:sodipodi="http://sodipodi.sourceforge.net/DTD/sodipodi-0.dtd"
   xmlns:inkscape="http://www.inkscape.org/namespaces/inkscape"
   width="500"
   height="500"
   viewBox="0 0 499.99998 499.99998"
   id="svg2"
   version="1.1"
   inkscape:version="0.91 r13725"
   sodipodi:docname="logo.svg">
  <defs
     id="defs4" />
  <sodipodi:namedview
     id="base"
     pagecolor="#ffffff"
     bordercolor="#666666"
     borderopacity="1.0"
     inkscape:pageopacity="0.0"
     inkscape:pageshadow="2"
     inkscape:zoom="0.7"
     inkscape:cx="256.01116"
     inkscape:cy="456.1383"
     inkscape:document-units="px"
     inkscape:current-layer="layer1"
     showgrid="false"
     units="px"
     showguides="true"
     inkscape:guide-bbox="true"
     inkscape:window-width="1366"
     inkscape:window-height="705"
     inkscape:window-x="1592"
     inkscape:window-y="62"
     inkscape:window-maximized="1">
    <sodipodi:guide
       position="281.76941,250.01275"
       orientation="0,1"
       id="guide3426" />
  </sodipodi:namedview>
  <metadata
     id="metadata7">
    <rdf:RDF>
      <cc:Work
         rdf:about="">
        <dc:format>image/svg+xml</dc:format>
        <dc:type
           rdf:resource="http://purl.org/dc/dcmitype/StillImage" />
        <dc:title></dc:title>
      </cc:Work>
    </rdf:RDF>
  </metadata>
  <g
     inkscape:label="M"
     inkscape:groupmode="layer"
     id="layer1"
     transform="translate(0,-552.36209)"
     style="display:inline">
    <flowRoot
       xml:space="preserve"
       id="flowRoot3380"
       style="font-style:normal;font-variant:normal;font-weight:normal;font-stretch:normal;font-size:179.99998474px;line-height:119.00000572%;font-family:'Eras Bold ITC';-inkscape-font-specification:'Eras Bold ITC';letter-spacing:-0.00556959px;word-spacing:0px;writing-mode:lr-tb;fill:#000000;fill-opacity:1;stroke:none;stroke-width:1px;stroke-linecap:butt;stroke-linejoin:miter;stroke-opacity:1"
       transform="matrix(2.1555309,0,0,2.1555309,-361.03855,-750.86343)"><flowRegion
         id="flowRegion3382"><rect
           id="rect3384"
           width="1297.1428"
           height="1394.2858"
           x="314.28571"
           y="257.36786"
           style="font-style:normal;font-variant:normal;font-weight:normal;font-stretch:normal;font-size:179.99998474px;line-height:119.00000572%;font-family:'Eras Bold ITC';-inkscape-font-specification:'Eras Bold ITC';letter-spacing:-0.00556959px;writing-mode:lr-tb" /></flowRegion><flowPara
         id="flowPara3386"
         style="font-size:374.99996948px;line-height:119.00000572%;letter-spacing:-0.00556959px;word-spacing:-2.78479362px;writing-mode:lr-tb" /></flowRoot>    <path
       d="m 65.449219,34.382812 c -17.150878,0 -31.103516,13.954595 -31.103516,31.105469 l 0,369.013669 c 0,17.1517 13.952638,31.10547 31.103516,31.10547 l 369.101561,0 c 17.15173,0 31.10352,-13.95377 31.10352,-31.10547 l 0,-369.013669 c 0,-17.150874 -13.95179,-31.105469 -31.10352,-31.105469 z m 246.822261,99.185538 46.05664,0 0,77.51953 14.36329,-44.23242 38.76171,0 -18.69726,60.30664 24.2832,90.97461 -44.34765,0 -14.36329,-65.89258 0,65.89258 -46.05664,0 z m -37.31445,22.67578 0,26.76563 c 6.57668,-11.82029 15.62681,-18.13043 27.16797,-18.89063 l 0,53.24024 c -8.43612,0 -14.62998,1.13988 -18.58203,3.41992 -3.95207,2.28003 -6.38487,5.47211 -7.29688,9.57617 -0.6999,3.09124 -1.12628,9.38062 -1.28906,18.73828 l 0,68.89258 -0.0781,0 0,0.15039 -46.05664,0 0,-0.10742 -7.7793,0.008 0,-80.86914 -40.43555,51.83984 -40.43554,-51.83984 0,80.86914 -53.912114,0 0,-161.74023 53.912114,0 40.43554,53.91406 40.43555,-53.91406 z"
       transform="translate(0,552.36209)"
       id="path4"
       inkscape:connector-curvature="0"
       sodipodi:nodetypes="sssssssssccccccccccccccccscccccccccccccccccc" />
    <flowRoot
       xml:space="preserve"
       id="flowRoot3409"
       style="font-style:normal;font-weight:normal;font-size:40px;line-height:125%;font-family:sans-serif;letter-spacing:0px;word-spacing:0px;fill:#000000;fill-opacity:1;stroke:none;stroke-width:1px;stroke-linecap:butt;stroke-linejoin:miter;stroke-opacity:1"
       transform="translate(0,552.36209)"><flowRegion
         id="flowRegion3411"><rect
           id="rect3413"
           width="377.79706"
           height="175.76654"
           x="70.710678"
           y="277.76645" /></flowRegion><flowPara
         id="flowPara3415"></flowPara></flowRoot>  </g>
  <g
     inkscape:groupmode="layer"
     id="layer3"
     inkscape:label="Rk">
    <g
       transform="matrix(1.2970855,0,0,1.2970855,104.6901,-369.86674)"
       style="font-style:normal;font-weight:normal;font-size:40px;line-height:125%;font-family:sans-serif;letter-spacing:0px;word-spacing:0px;fill:#000000;fill-opacity:1;stroke:none;stroke-width:1px;stroke-linecap:butt;stroke-linejoin:miter;stroke-opacity:1"
       id="flowRoot3418" />
  </g>
</svg>
