<?xml version="1.0" encoding="UTF-8" standalone="no"?>
<!-- Created with Inkscape (http://www.inkscape.org/) -->

<svg
   xmlns:dc="http://purl.org/dc/elements/1.1/"
   xmlns:cc="http://creativecommons.org/ns#"
   xmlns:rdf="http://www.w3.org/1999/02/22-rdf-syntax-ns#"
   xmlns:svg="http://www.w3.org/2000/svg"
   xmlns="http://www.w3.org/2000/svg"
   xmlns:sodipodi="http://sodipodi.sourceforge.net/DTD/sodipodi-0.dtd"
   xmlns:inkscape="http://www.inkscape.org/namespaces/inkscape"
   width="500"
   height="500"
   viewBox="0 0 500.00001 500.00001"
   id="svg2"
   version="1.1"
   inkscape:version="0.91 r13725"
   inkscape:export-filename="C:\Users\fferegrino\Documents\GitHub\MrkViewer\MrkViewer.Windows8\Assets\StoreLogo.scale-180.png"
   inkscape:export-xdpi="16.200001"
   inkscape:export-ydpi="16.200001"
   sodipodi:docname="logo.svg">
  <defs
     id="defs4" />
  <sodipodi:namedview
     id="base"
     pagecolor="#ffffff"
     bordercolor="#666666"
     borderopacity="1.0"
     inkscape:pageopacity="0.0"
     inkscape:pageshadow="2"
     inkscape:zoom="0.49497475"
     inkscape:cx="318.89356"
     inkscape:cy="101.09395"
     inkscape:document-units="px"
     inkscape:current-layer="layer1"
     showgrid="false"
     units="px"
     showguides="true"
     inkscape:guide-bbox="true"
     inkscape:window-width="1366"
     inkscape:window-height="715"
     inkscape:window-x="-8"
     inkscape:window-y="-8"
     inkscape:window-maximized="1">
    <sodipodi:guide
       position="0,150"
       orientation="0,1"
       id="guide4702"
       inkscape:label=""
       inkscape:color="rgb(0,0,255)" />
    <sodipodi:guide
       position="0,350.00001"
       orientation="0,1"
       id="guide4704"
       inkscape:label=""
       inkscape:color="rgb(0,0,255)" />
    <sodipodi:guide
       position="150,0"
       orientation="1,0"
       id="guide4706"
       inkscape:label=""
       inkscape:color="rgb(0,0,255)" />
    <sodipodi:guide
       position="350.00001,0"
       orientation="1,0"
       id="guide4708"
       inkscape:label=""
       inkscape:color="rgb(0,0,255)" />
  </sodipodi:namedview>
  <metadata
     id="metadata7">
    <rdf:RDF>
      <cc:Work
         rdf:about="">
        <dc:format>image/svg+xml</dc:format>
        <dc:type
           rdf:resource="http://purl.org/dc/dcmitype/StillImage" />
        <dc:title></dc:title>
      </cc:Work>
    </rdf:RDF>
  </metadata>
  <g
     inkscape:label="Capa 1"
     inkscape:groupmode="layer"
     id="layer1"
     transform="translate(0,-552.36216)">
    <path
       style="display:inline"
       d="m 312.14667,707.75704 47.21499,0 0,79.46913 14.72452,-45.34486 39.73658,0 -19.16749,61.82336 24.89391,93.26261 -45.463,0 -14.72452,-67.54977 0,67.54977 -47.21497,0 z m -38.25291,23.24607 0,27.43878 c 6.74212,-12.11756 16.01983,-18.5864 27.85128,-19.36573 l 0,54.57924 c -8.64831,0 -14.99794,1.16855 -19.04937,3.50592 -4.05148,2.33738 -6.54545,5.60975 -7.48041,9.81702 -0.7175,3.16899 -1.15461,9.61655 -1.3215,19.20955 l 0,70.62524 -0.08,0 0,0.1541 -47.21496,0 0,-0.11015 -7.97495,0.009 0,-82.903 -41.4525,53.14362 -41.4525,-53.14362 0,82.903 -55.268003,0 0,-165.808 55.268003,0 41.4525,55.27 41.4525,-55.27 z"
       id="path4"
       inkscape:connector-curvature="0"
       sodipodi:nodetypes="ccccccccccccccccscccccccccccccccccc" />
  </g>
</svg>
